<?xml version="1.0" encoding="utf-8"?>
<!DOCTYPE svg PUBLIC "-//W3C//DTD SVG 1.1//EN" "http://www.w3.org/Graphics/SVG/1.1/DTD/svg11.dtd">
<svg version="1.1"
	 id="svg2" xmlns:dc="http://purl.org/dc/elements/1.1/" xmlns:cc="http://creativecommons.org/ns#" xmlns:rdf="http://www.w3.org/1999/02/22-rdf-syntax-ns#" xmlns:svg="http://www.w3.org/2000/svg" xmlns:sodipodi="http://sodipodi.sourceforge.net/DTD/sodipodi-0.dtd" xmlns:inkscape="http://www.inkscape.org/namespaces/inkscape" sodipodi:docname="                               1" inkscape:version="0.47 r22583"
	 xmlns="http://www.w3.org/2000/svg" xmlns:xlink="http://www.w3.org/1999/xlink" x="0px" y="0px"
	 viewBox="0 0 1291.6768 1629.3462" enable-background="new 0 0 1291.6768 1629.3462" xml:space="preserve">
<defs>
	
	
		<inkscape:path-effect  fuse_tolerance="0" prop_units="false" tang_offset="0" normal_offset="0" spacing="0" scale_y_rel="false" prop_scale="1" copytype="single_stretched" pattern="M 0,0 0,10 10,5 z" is_visible="true" effect="skeletal" id="path-effect3691" vertical_pattern="false">
		</inkscape:path-effect>
	<inkscape:path-effect  is_visible="true" effect="spiro" id="path-effect3689"></inkscape:path-effect>
	
		<inkscape:perspective  inkscape:vp_z="744.09448 : 526.18109 : 1" inkscape:vp_y="0 : 1000 : 0" inkscape:vp_x="0 : 526.18109 : 1" sodipodi:type="inkscape:persp3d" id="perspective10" inkscape:persp3d-origin="372.04724 : 350.78739 : 1">
		</inkscape:perspective>
</defs>
<sodipodi:namedview  showgrid="false" inkscape:cy="814.6731" inkscape:cx="645.83838" inkscape:zoom="0.41918654" borderopacity="1.0" bordercolor="#666666" pagecolor="#ffffff" id="base" inkscape:window-maximized="1" inkscape:window-y="-9" inkscape:window-x="-9" inkscape:window-height="949" inkscape:window-width="1280" inkscape:current-layer="layer1" inkscape:document-units="px" inkscape:pageshadow="2" inkscape:pageopacity="0.0">
	</sodipodi:namedview>
<g id="layer1" transform="translate(-26.731179,608.3476)" inkscape:label="Layer 1" inkscape:groupmode="layer">
	<g id="g3630" transform="translate(0,4.0449539e-5)">
		<path id="path2816" sodipodi:nodetypes="cssscssssc" stroke="#000000" stroke-width="5" d="M673.364,1018.4985
			c0,0-322.0619-70.7433-390.675-235.811s26.6117-328.0408,25.2049-461.3052C306.4936,188.7386,128.1835,92.0556,95.053,172.5266
			c-18.2035,44.2146,113.4218,201.9132,113.4218,201.9132S30.9888,263.7198,29.2403,160.736
			c-1.039-61.1963,86.4989-98.693,148.4285-88.4291c71.8135,11.902,149.0737,22.0368,161.0309,252.023
			c7.6139,146.4469-57.411,347.8212,51.8099,483.4125S676.1646,1018.4985,673.364,1018.4985z"/>
		<path id="path2818" stroke="#000000" stroke-width="8.4309" d="M645.667,718.186l-250.3833,39.5008
			c0,0,31.1313,7.1904,84.8865,53.8531c50.3524,43.709,179.8469,70.308,196.2338,73.54v0.6351c0,0,1.323-0.2836,1.6088-0.3387
			c0.2858,0.0551,1.6088,0.3387,1.6088,0.3387V885.08c16.3869-3.232,145.8815-29.8311,196.2338-73.54
			c53.7552-46.6628,84.8865-53.8531,84.8865-53.8531L710.3585,718.186c0,0-18.9668,16.9091-32.3458,21.5497
			C664.6338,735.0951,645.667,718.186,645.667,718.186z"/>
		<g id="g3600" transform="matrix(3.2020927,0,0,3.2020927,-1084.3288,-868.36308)">
			
				<path id="path3594" sodipodi:ry="39.290241" sodipodi:cy="484.57965" sodipodi:cx="466.09012" sodipodi:rx="39.290241" sodipodi:type="arc" stroke="#000000" stroke-width="4.5" d="
				M587.1309,339.8385c0,20.8457-16.8988,37.7445-37.7445,37.7445c-20.8458,0-37.7445-16.8988-37.7445-37.7445
				s16.8988-37.7445,37.7445-37.7445C570.2321,302.0939,587.1309,318.9927,587.1309,339.8385L587.1309,339.8385z"/>
			<path id="path3592" sodipodi:nodetypes="cscsc" fill="none" stroke="#000000" stroke-width="3.3706" d="M450.4173,343.0947
				c0,0,25.6618,28.5305,86.807,35.0447c62.2227,6.6289,113.2327-34.7498,113.2327-34.7498
				c-19.3575,12.905-38.1851-38.2729-95.491-41.5588C492.8334,298.2681,478.0128,343.8664,450.4173,343.0947L450.4173,343.0947z"/>
			
				<path id="path3596" sodipodi:ry="39.290241" sodipodi:cy="484.57965" sodipodi:cx="466.09012" sodipodi:rx="39.290241" sodipodi:type="arc" fill="#FFFFFF" stroke="#000000" stroke-width="4.5" d="
				M572.0275,354.002c0,8.8941-7.2101,16.1041-16.1041,16.1041c-8.8941,0-16.1041-7.2101-16.1041-16.1042
				s7.21-16.1041,16.1041-16.1041C564.8174,337.8979,572.0275,345.1079,572.0275,354.002L572.0275,354.002z"/>
			
				<path id="path3598" sodipodi:ry="39.290241" sodipodi:cy="484.57965" sodipodi:cx="466.09012" sodipodi:rx="39.290241" sodipodi:type="arc" fill="#FFFFFF" d="
				M570.4977,339.8385c0,2.6337-2.1351,4.7687-4.7687,4.7687s-4.7687-2.135-4.7687-4.7687c0-2.6337,2.135-4.7687,4.7687-4.7687
				S570.4977,337.2048,570.4977,339.8385L570.4977,339.8385z"/>
		</g>
		<path id="path3606" sodipodi:nodetypes="cssscssssc" stroke="#000000" stroke-width="5" d="M671.7751,1018.4985
			c0,0,322.0619-70.7433,390.675-235.811c68.613-165.0677-26.6117-328.0408-25.205-461.3053
			c1.4003-132.6437,179.7103-229.3267,212.8409-148.8557c18.2035,44.2146-113.4218,201.9132-113.4218,201.9132
			s177.486-110.72,179.2344-213.7037c1.0389-61.1963-86.4989-98.693-148.4285-88.4291
			c-71.8135,11.902-149.0737,22.0368-161.0309,252.023c-7.6139,146.4469,57.411,347.8213-51.8099,483.4126
			S668.9746,1018.4985,671.7751,1018.4985z"/>
		<g id="g3626" transform="translate(-14,0)">
			<path id="path3621" sodipodi:nodetypes="csscssss" fill="none" stroke="#000000" stroke-width="12" d="M693.8055,631.2888
				c0,0-35.8516-15.934-33.1959-42.4908c2.2578-22.5775-47.8021-39.8351-55.7691-15.934
				c-7.967,23.9011,31.8681,50.4578,31.8681,50.4578s-21.9854,4.9647-47.8021,0c-34.5237-6.6392-50.4578-47.8021-29.2124-79.6702
				s70.79-45.6367,79.6702-61.0805c30.5402-53.1135,21.5038-104.6476,18.401-135.6281"/>
			<path id="path3623" sodipodi:nodetypes="csscsss" fill="none" stroke="#000000" stroke-width="12" d="M690.8171,631.2888
				c0,0,35.8516-15.934,33.1959-42.4908c-2.2578-22.5775,47.8021-39.8351,55.7691-15.934
				c7.967,23.9011-31.868,50.4578-31.868,50.4578s21.9854,4.9647,47.8021,0c34.5237-6.6392,50.4578-47.8021,29.2124-79.6702
				s-70.79-45.6367-79.6702-61.0805"/>
		</g>
	</g>
	<g id="g3643" transform="translate(0,4.0449539e-5)">
		<path id="path3645" sodipodi:nodetypes="cssscssssc" stroke="#000000" stroke-width="5" d="M673.364,1018.4985
			c0,0-322.0619-70.7433-390.675-235.811s26.6117-328.0408,25.2049-461.3052C306.4936,188.7386,128.1835,92.0556,95.053,172.5266
			c-18.2035,44.2146,113.4218,201.9132,113.4218,201.9132S30.9888,263.7198,29.2403,160.736
			c-1.039-61.1963,86.4989-98.693,148.4285-88.4291c71.8135,11.902,149.0737,22.0368,161.0309,252.023
			c7.6139,146.4469-57.411,347.8212,51.8099,483.4125S676.1646,1018.4985,673.364,1018.4985z"/>
		<g id="g3649" transform="matrix(3.2020927,0,0,3.2020927,-1084.3288,-868.36308)">
			
				<path id="path3651" sodipodi:ry="39.290241" sodipodi:cy="484.57965" sodipodi:cx="466.09012" sodipodi:rx="39.290241" sodipodi:type="arc" stroke="#000000" stroke-width="4.5" d="
				M587.1309,339.8385c0,20.8457-16.8988,37.7445-37.7445,37.7445c-20.8458,0-37.7445-16.8988-37.7445-37.7445
				s16.8988-37.7445,37.7445-37.7445C570.2321,302.0939,587.1309,318.9927,587.1309,339.8385L587.1309,339.8385z"/>
			<path id="path3653" sodipodi:nodetypes="cscsc" fill="none" stroke="#000000" stroke-width="6.2125" d="M450.4173,343.0947
				c0,0,25.6618,28.5305,86.807,35.0447c62.2227,6.6289,113.2327-34.7498,113.2327-34.7498
				c-19.3575,12.905-38.1851-38.2729-95.491-41.5588C492.8334,298.2681,478.0128,343.8664,450.4173,343.0947L450.4173,343.0947z"/>
			
				<path id="path3655" sodipodi:ry="39.290241" sodipodi:cy="484.57965" sodipodi:cx="466.09012" sodipodi:rx="39.290241" sodipodi:type="arc" fill="#FFFFFF" stroke="#000000" stroke-width="4.5" d="
				M572.0275,354.002c0,8.8941-7.2101,16.1041-16.1041,16.1041c-8.8941,0-16.1041-7.2101-16.1041-16.1042
				s7.21-16.1041,16.1041-16.1041C564.8174,337.8979,572.0275,345.1079,572.0275,354.002L572.0275,354.002z"/>
			
				<path id="path3657" sodipodi:ry="39.290241" sodipodi:cy="484.57965" sodipodi:cx="466.09012" sodipodi:rx="39.290241" sodipodi:type="arc" fill="#FFFFFF" d="
				M570.4977,339.8385c0,2.6337-2.1351,4.7687-4.7687,4.7687s-4.7687-2.135-4.7687-4.7687c0-2.6337,2.135-4.7687,4.7687-4.7687
				S570.4977,337.2048,570.4977,339.8385L570.4977,339.8385z"/>
			<path id="path3695" sodipodi:nodetypes="csc" fill="none" stroke="#000000" stroke-width="3.1854" d="M502.6256,370.1827
				c0,0-14.1327-8.2827-14.8969-25.1705c-0.9334-20.6288,10.7874-28.7663,10.7874-28.7663"/>
			<path id="path3697" sodipodi:nodetypes="csc" fill="none" stroke="#000000" stroke-width="3.1854" d="M597.6043,370.1827
				c0,0,14.1327-8.2827,14.8969-25.1705c0.9334-20.6288-10.7874-28.7663-10.7874-28.7663"/>
		</g>
		<path id="path3659" sodipodi:nodetypes="cssscssssc" stroke="#000000" stroke-width="5" d="M671.7751,1018.4985
			c0,0,322.0619-70.7433,390.675-235.811c68.613-165.0677-26.6117-328.0408-25.205-461.3053
			c1.4003-132.6437,179.7103-229.3267,212.8409-148.8557c18.2035,44.2146-113.4218,201.9132-113.4218,201.9132
			s177.486-110.72,179.2344-213.7037c1.0389-61.1963-86.4989-98.693-148.4285-88.4291
			c-71.8135,11.902-149.0737,22.0368-161.0309,252.023c-7.6139,146.4469,57.411,347.8213-51.8099,483.4126
			S668.9746,1018.4985,671.7751,1018.4985z"/>
		<g id="g3661" transform="translate(-14,0)">
			<path id="path3663" sodipodi:nodetypes="csscssss" fill="none" stroke="#000000" stroke-width="12" d="M693.8055,631.2888
				c0,0-35.8516-15.934-33.1959-42.4908c2.2578-22.5775-47.8021-39.8351-55.7691-15.934
				c-7.967,23.9011,31.8681,50.4578,31.8681,50.4578s-21.9854,4.9647-47.8021,0c-34.5237-6.6392-50.4578-47.8021-29.2124-79.6702
				s70.79-45.6367,79.6702-61.0805c30.5402-53.1135,21.5038-104.6476,18.401-135.6281"/>
			<path id="path3665" sodipodi:nodetypes="csscsss" fill="none" stroke="#000000" stroke-width="12" d="M690.8171,631.2888
				c0,0,35.8516-15.934,33.1959-42.4908c-2.2578-22.5775,47.8021-39.8351,55.7691-15.934
				c7.967,23.9011-31.868,50.4578-31.868,50.4578s21.9854,4.9647,47.8021,0c34.5237-6.6392,50.4578-47.8021,29.2124-79.6702
				s-70.79-45.6367-79.6702-61.0805"/>
		</g>
		<path id="path3667" sodipodi:nodetypes="cssscssssc" stroke="#000000" stroke-width="2.7335" d="M530.079-348.9096
			c0,0-199.7669,34.0874-242.326,113.6248S304.2596-77.2194,303.387-13.0063C302.5184,50.9076,191.9172,97.494,171.3671,58.7193
			c-11.2912-21.3046,70.3527-97.2912,70.3527-97.2912S131.6297,14.7782,130.5452,64.4005
			c-0.6445,29.4872,53.6531,47.5549,92.0665,42.6093c44.5441-5.735,92.4667-10.6184,99.8835-121.4365
			c4.7227-70.565-35.6107-167.5965,32.1364-232.9308S531.8162-348.9096,530.079-348.9096z"/>
		<path id="path3669" sodipodi:nodetypes="cssscssssc" stroke="#000000" stroke-width="2.7335" d="M791.3157-348.9096
			c0,0,199.7669,34.0874,242.326,113.6248c42.5592,79.5373-16.5065,158.0654-15.634,222.2785
			c0.8686,63.9139,111.47,110.5003,132.02,71.7256c11.2913-21.3046-70.3527-97.2912-70.3527-97.2912
			s110.0901,53.3501,111.1747,102.9725c0.6444,29.4872-53.6532,47.5549-92.0667,42.6093
			c-44.5441-5.735-92.4666-10.6184-99.8834-121.4365c-4.7227-70.565,35.6106-167.5965-32.1364-232.9308
			S789.5786-348.9096,791.3157-348.9096z"/>
		<path id="path3671" stroke="#000000" stroke-width="0.8815" d="M526.7463-345.4679c0,0-144.7739,94.5723-69.0966,250.4889
			s82.2579,158.4725,82.2579,158.4725s-82.2579-214.7047-49.3547-291.385S533.3269-345.4679,526.7463-345.4679z"/>
		<path id="path3673" stroke="#000000" stroke-width="0.8815" d="M771.3652-345.4679c0,0,144.7739,94.5723,69.0966,250.4889
			S758.2039,63.4935,758.2039,63.4935s82.2579-214.7047,49.3547-291.385S764.7845-345.4679,771.3652-345.4679L771.3652-345.4679z"/>
		<path id="path3675" stroke="#000000" stroke-width="0.6102" d="M626.9079-343.0315c0,0-100.214,65.464-47.8294,173.391
			s56.9398,109.6963,56.9398,109.6963s-56.9398-148.6208-34.1639-201.6997S631.4631-343.0314,626.9079-343.0315L626.9079-343.0315z"
			/>
		<path id="path3677" stroke="#000000" stroke-width="0.6102" d="M694.2358-340.4754c0,0,100.214,65.4639,47.8294,173.3909
			S685.1254-57.3882,685.1254-57.3882s56.9398-148.6208,34.1639-201.6997S689.6806-340.4754,694.2358-340.4754L694.2358-340.4754z"
			/>
		<path id="path3679" stroke="#000000" stroke-width="0.798" d="M677.823-453.0576c0,0,45.4597-18.3972,32.0512-43.2889
			c-13.4085-24.8917-72.5742-33.9943-88.7486-13.654s-67.6033,79.0508-44.9523,92.3195
			c22.651,13.2686,43.5865,34.6594,87.6283,26.9925c44.0417-7.6669,76.7581-21.9681,92.6348-44.9166
			c15.8768-22.9486,22.2136-36.8823,14.319-59.7609c-7.8945-22.8787,3.9562-34.7993-25.399-60.5137
			s-109.9817-37.653-109.9817-37.653s83.9875-28.0772,120.8698-5.8636s56.4698,78.106,60.0406,109.4044
			s2.818,71.0164-26.0998,95.4529s-23.929,45.0044-89.7291,47.2273c-65.8,2.2228-139.7223,2.7302-154.8463-14.0393
			s-39.5604-45.6873-28.6723-89.2039s11.4133-62.0715,48.1556-87.4006c36.7424-25.3291,50.9037-40.1555,81.0817-30.3878
			s37.4075,3.6586,58.343,25.0494c20.9355,21.3908,36.8823,22.2136,26.5194,47.1752S676.1075-444.9355,677.823-453.0576
			L677.823-453.0576z"/>
	</g>
</g>
</svg>
