<?xml version="1.0" encoding="utf-8"?>
<!DOCTYPE svg PUBLIC "-//W3C//DTD SVG 1.1//EN" "http://www.w3.org/Graphics/SVG/1.1/DTD/svg11.dtd">
<svg version="1.1" id="Layer_1" xmlns="http://www.w3.org/2000/svg" xmlns:xlink="http://www.w3.org/1999/xlink" x="0px" y="0px"
	 viewBox="0 0 725.2677 1781.9775" enable-background="new 0 0 725.2677 1781.9775" xml:space="preserve">
<g>
	<path d="M705.0469,1113.5608c-6.1583,2.8589-10.9927,7.1869-17.6771,7.4576c-2.6012,0.1053-4.1234,1.9817-4.9954,4.3121
		c-1.2689,3.3906-0.8054,6.392,3.3797,6.4166c5.7682,0.0342,10.2446,1.2341,12.8115,7.1293
		c1.0067,2.3115,5.3729-0.0098,7.0432,3.9604c-8.739,3.069-15.5757,11.6166-26.5093,7.766
		c-0.9119-0.3212-1.9781-0.2648-2.9739-0.2764c-3.7344-0.0437-5.2723,2.509-6.0673,5.5552
		c-0.9734,3.7299,1.9565,4.9301,4.5402,5.1333c10.6276,0.8363,18.2416,8.3912,27.9413,11.257
		c-1.0192,3.4625-3.3425,2.9766-4.9592,2.4731c-5.3019-1.6506-8.8548-0.6656-10.8712,5.0536
		c-1.1862,3.3645-4.3204,3.7194-7.5733,2.6996c-4.1313-1.2952-8.2824-2.5288-12.4368-3.7488
		c-1.9132-0.5618-3.8317-1.3171-5.7886-1.4738c-3.5671-0.2853-5.6102,2.1089-6.4958,5.1077
		c-0.9086,3.0767,1.9534,3.9603,4.0072,4.7699c10.2205,4.0292,20.5355,7.819,30.7486,11.8667
		c3.5007,1.3875,7.9233,1.6503,9.6516,6.5072c-4.0944,2.1949-7.2747-0.3079-10.4382-1.469
		c-10.3154-3.7864-20.5299-7.8475-30.7921-11.7794c-1.8639-0.714-3.7328-1.4727-5.6649-1.9386
		c-3.7758-0.9102-5.6426,1.7572-6.7775,4.5182c-1.2717,3.0941,1.7645,3.9004,3.7087,4.8729
		c5.6578,2.8308,11.3638,5.576,17.1385,8.1588c4.4156,1.9746,7.7227,4.344,5.103,9.8213c-1.962,4.1023,0.3287,6.1049,3.5375,7.913
		c3.6404,2.0514,7.6329,3.6833,10.8418,7.17c-3.093,2.6949-4.825,0.3124-6.6483-0.4202c-5.1241-2.0586-9.5368-6.2115-15.8801-4.4495
		c-2.2691,0.6302-4.3405-1.4008-6.3745-2.4899c-6.4595-3.459-12.828-7.0928-19.3426-10.443
		c-5.4512-2.8036-7.5874-2.1619-11.1486,2.2024c-2.4479,3-2.1232,5.3861,1.0078,7.4943c4.6964,3.1621,9.3808,6.3431,14.1213,9.4382
		c5.7878,3.7793,11.8213,6.7957,15.1595,13.8199c2.2021,4.6335,8.0478,6.7273,12.5145,9.6208
		c1.3747,0.8904,3.1625,1.9326,2.0588,3.817c-1.0966,1.8724-2.9823,1.0011-4.3835,0.1229c-3.386-2.1228-6.7913-4.2456-9.9764-6.6499
		c-3.107-2.3452-5.8081-3.158-8.3829,0.582c-3.4426,5.0002-7.079,3.4841-10.9583,0.4462
		c-5.7689-4.5171-11.6543-8.8866-17.5272-13.2692c-2.6678-1.9911-5.4247-3.8628-8.1408-5.7893
		c-3.3809-2.3984-5.722-0.2206-7.7039,2.0546c-2.3406,2.6871,0.2966,4.2007,1.9587,5.6185
		c14.7057,12.5419,29.4675,25.0181,44.1996,37.5291c2.0288,1.7231,4.0402,3.4744,5.9542,5.3217
		c0.9945,0.9598,1.6505,2.3324,0.2289,3.353c-0.6256,0.4491-2.0593,0.4824-2.7051,0.0604c-1.9401-1.2677-3.6934-2.8282-5.4833-4.318
		c-14.3425-11.9386-28.6761-23.8883-43.0151-35.8309c-1.024-0.8529-2.0768-1.6715-3.1058-2.5184
		c-2.8057-2.3086-5.8473-3.8043-8.7681-0.5208c-3.0156,3.3905,0.2614,5.5154,2.2819,7.428
		c7.0157,6.6409,14.2468,13.0537,21.3273,19.6272c7.1,6.5918,7.1861,6.692,2.823,15.3522
		c-1.3242,2.6282-0.7736,4.3864,1.0436,6.1993c3.5372,3.5294,7.1085,7.0251,10.6116,10.5881
		c1.3837,1.4071,2.7352,2.8757,3.8813,4.474c0.5738,0.8,0.5186,2.1342-0.4356,2.6603c-0.7308,0.4028-2.1462,0.5675-2.6926,0.1313
		c-2.5886-2.067-4.9836-4.3766-7.4471-6.6003c-4.6182-4.1687-7.9818-10.0251-14.919-11.0822
		c-0.3087-0.0469-0.6461-0.2391-0.8698-0.4636c-11.2845-11.3263-22.5071-22.7133-32.86-34.9144
		c-2.2665-2.6713-0.9373-4.7565,1.2059-6.8636c22.5021-22.1229,32.3693-49.7373,35.3933-80.5154
		c2.09-21.2703,3.3421-42.4186,0.6335-63.7817c-6.0759-47.9207-27.8146-86.2882-67.6495-114.1049
		c-19.7176-13.7689-41.0122-23.4567-65.1823-25.9487c-4.6337-0.4778-9.2928-0.9238-13.9441-0.9675
		c-7.1248-0.0671-7.6631,0.3934-6.8074,7.2923c1.2704,10.2411,2.9376,20.4344,4.5235,30.6346
		c11.2038,72.0593,22.4043,144.1193,33.6672,216.1694c2.8295,18.1003,5.8792,36.1664,8.8345,54.2471
		c0.6939,4.2455,2.0412,8.5189-0.9854,12.488c-2.2611,2.9652-0.4605,5.7219,0.6187,8.4513
		c6.0024,15.1803,11.9679,30.3762,18.1137,45.4985c2.1021,5.1724,3.1233,9.4641-3.5815,12.1306
		c-3.6634,1.4568-2.7708,4.7594-1.704,7.7501c2.6852,7.5286,5.2797,15.0897,8.0005,22.6055
		c0.8014,2.2135,2.3117,4.7872,0.9904,6.6855c-3.7806,5.431-1.6756,10.8536-0.874,16.3621
		c6.6791,45.9,10.0754,92.0271,9.6626,138.4264c-0.4063,45.6487-13.9386,86.7025-44.0525,121.3408
		c-30.6786,35.2874-69.1855,56.7815-116.0558,62.3486c-35.0588,4.1641-69.7682,3.7537-103.8382-7.0239
		c-40.7169-12.8805-70.8494-37.5085-87.0675-77.7463c-10.1661-25.2225-17.0131-51.2427-17.0834-78.6013
		c-0.1343-52.2361,32.6618-85.5155,67.6322-98.2469c41.8428-15.2336,99.3234-1.5626,116.1522,54.4149
		c4.7167,15.6891,8.6063,31.5146,8.9909,47.9651c0.6974,29.8235-11.0191,52.8193-37.2949,68.0616
		c-15.8745,9.2086-32.3119,17.2689-48.6857,25.4912c-12.7599,6.4075-12.9573,10.5297-1.2703,19.4113
		c5.6206,4.2715,11.8305,7.5493,18.3939,9.9686c28.8032,10.6171,58.4292,12.7253,88.5124,7.3094
		c16.6692-3.0011,31.3893-10.8744,45.1432-20.5276c20.4187-14.3306,37.3574-32.1306,51.3853-52.6709
		c7.2675-10.6414,10.5253-22.9818,13.097-35.3942c5.1854-25.0264,4.5967-50.3323,2.9518-75.6559
		c-2.1654-33.3364-8.8844-65.9836-15.1116-98.6932c-1.3687-7.1901-2.0031-13.2726,6.5915-16.1875
		c3.4217-1.1606,4.1638-4.2391,3.4892-7.4127c-1.6607-7.8136-3.5298-15.5835-5.3609-23.3601
		c-0.8089-3.4346-2.611-5.0704-6.4924-4.12c-4.8016,1.1757-6.6417-1.9968-7.3344-6.0133
		c-3.508-20.3425-6.9468-40.6969-10.4097-61.0471c3.7244-28.5775-5.1551-55.985-8.0658-83.9316
		c-2.897-27.813-7.6482-55.4298-11.422-83.1549c-5.7033-41.8999-11.2602-83.8199-16.8878-125.7303
		c-1.329-9.8984-2.7722-19.7824-3.9981-29.6934c-0.4847-3.9176-2.1453-5.3427-5.9857-3.9175
		c-29.0589,10.785-55.8816,24.516-75.6827,49.8333c-23.4371,29.9662-29.4998,88.1128,2.286,124.5259
		c2.4713,2.8309,5.7,5.4407,6.7198,9.8711c-4.5763,1.7466-7.8278-0.1794-11.0267-1.672
		c-10.2542-4.7845-18.1108-12.2692-24.1951-21.7499c-10.3796-16.1736-16.7748-34.0238-21.8282-52.3811
		c-2.9114-10.576-5.8641-21.1711-6.4538-32.2659c-2.3134-43.5134,13.6349-80.1068,42.3287-111.813
		c19.4083-21.4459,43.3363-36.2426,70.2277-46.3799c7.68-2.8951,9.998-2.9065,8.3022-13.4952
		c-7.3717-46.0308-14.0588-92.1711-21.0493-138.2633c-0.5318-3.5066-1.4905-6.9484-2.289-10.5942
		c-11.1794,5.8777-11.0849,5.7932-19.6362-3.7537c-15.5607-17.3724-31.2489-34.6306-46.8763-51.9433
		c-3.1007-3.4351-6.6889-6.5192-6.8986-11.7536c-0.0977-2.439-2.0936-4.1028-3.6443-5.8244
		c-4.9034-5.4439-9.8955-10.808-14.7859-16.2635c-3.5564-3.9672-7.029-8.0106-10.4878-12.0637
		c-0.9261-1.0852-1.2303-2.6047-0.2997-3.6492c1.6115-1.8085,3.0482-0.3229,4.1158,0.8539
		c7.8306,8.6314,15.6948,17.2361,23.336,26.0338c3.6897,4.248,6.7704,8.3497,13.0419,3.392
		c2.9723-2.3496,5.6104,0.5508,7.6573,2.7221c4.7989,5.0906,9.5035,10.2717,14.1777,15.4777
		c12.4653,13.8833,24.8231,27.8641,37.3757,41.6677c4.5565,5.0107,7.3889,4.6364,11.1118-0.342
		c2.9387-3.9296-0.0216-6.2097-2.1389-8.572c-16.2309-18.1093-32.4989-36.186-48.8497-54.1872
		c-10.3003-11.3399-20.7779-22.5186-31.1393-33.803c-1.8003-1.9606-3.5081-4.022-5.0902-6.1613
		c-1.1055-1.4948-3.227-3.428-0.9534-5.0435c1.9989-1.4204,3.5356,0.7886,4.8604,2.2678
		c19.9991,22.329,39.9932,44.6624,60.0042,66.9807c8.2276,9.1763,16.408,18.3975,24.7779,27.4429
		c4.0374,4.3631,5.9091,4.0625,9.7088-0.0695c2.6206-2.8499,2.1985-5.1388-0.2364-7.7646
		c-6.5704-7.0854-13.042-14.2623-19.5363-21.4182c-10.0754-11.1019-20.1671-22.1895-30.1926-33.3365
		c-5.4224-6.0291-5.5999-6.2389-0.9933-12.9393c2.7516-4.0023,0.3145-6.041-1.9656-8.5071
		c-7.0085-7.58-14.0101-15.1666-20.9811-22.7811c-1.3446-1.4686-2.6775-2.9852-3.7542-4.649
		c-0.7331-1.1328-0.9037-2.7211,0.6298-3.3868c0.6765-0.2937,2.1059,0.0927,2.6342,0.6763
		c4.6915,5.1835,9.5263,10.272,13.8064,15.7862c9.6453,12.4266,23.7777,19.9156,34.0331,31.7609
		c12.8602,14.854,26.5609,28.9825,39.9765,43.3516c3.0691,3.287,4.3812,6.7636,4.9121,11.4413
		c1.7628,15.5344,4.5014,30.9578,6.8529,46.4257c6.4063,42.1378,12.9105,84.261,19.1548,126.4228
		c2.3663,15.977,2.0524,15.346,17.6119,14.4615c66.4101-3.7752,126.3636,12.0377,174.6494,60.4044
		c25.5165,25.5595,40.5642,57.3289,51.793,91.2927c6.8961,20.8586,7.8705,41.5822,2.732,62.7582
		c-0.8029,3.3091-0.912,6.0044,3.4688,6.5303c1.7533,0.2107,3.4892,1.2393,3.6335,2.9531
		C698.0583,1107.9944,702.2062,1110.1194,705.0469,1113.5608z M488.5193,1369.4548c1.7206,8.959,3.6857,18.0422,6.6686,26.8688
		c1.0793,3.1941,3.4776,3.6803,6.4244,2.5195c5.8678-2.3114,11.7395-4.6133,17.6244-6.8805c1.8561-0.7152,2.6389-2.0638,2.11-3.882
		c-2.7856-9.5718-4.9733-19.6604-10.6442-27.7778c-3.7362-5.3481-6.3106-10.7439-8.2418-16.7395
		c-4.6873-14.5537-9.4429-29.0852-14.1529-43.6315c-1.4019-4.3301-4.4689-5.4657-8.5984-4.5471
		c-4.9027,1.0906-3.8506,4.5629-3.0433,7.8644c2.7636,11.3016,5.912,22.5236,8.2349,33.9143
		C487.0524,1347.7124,492.6594,1357.9432,488.5193,1369.4548z"/>
	<path d="M589.6893,442.5061c-2.9778,3.0323-5.1201,0.6061-7.3122-0.3885c-20.3144-9.2177-40.5949-18.5103-60.9351-27.6704
		c-3.5177-1.5841-7.3831-5.0822-11.0878-2.4196c-4.2745,3.0723-6.8859,8.0324-9.0766,12.8994
		c-1.051,2.3351,0.8693,3.8181,2.5894,4.7594c5.5478,3.036,11.2328,5.8202,16.8115,8.8014
		c2.9052,1.5524,5.1297,0.9466,6.7518-1.7996c2.9481-4.9909,6.622-4.221,11.0208-1.9474
		c13.0192,6.729,26.2109,13.1236,39.2474,19.8195c8.069,4.1445,8.4626,5.5488,5.0753,14.1198
		c-0.7336,1.8561-1.5152,3.7054-2.4401,5.4711c-1.8112,3.4573-4.2603,4.9-8.1077,2.6663
		c-15.2653-8.8623-31.3217-16.6111-45.5643-26.8809c-7.1741-5.1729-13.8773-11.0964-21.7747-15.2952
		c-7.544-4.0109-7.5981-3.9092-13.0755,2.7513c-0.6348,0.7721-1.3009,1.5206-1.902,2.3181
		c-4.981,6.6067-4.9708,7.0347,1.6118,11.572c3.8367,2.6447,7.8295,5.0643,11.7698,7.5569
		c3.5503,2.2458,6.7476,5.6198,11.3892,1.338c1.7907-1.6518,4.4365,0.0731,6.4451,1.3278
		c14.9727,9.3523,29.899,18.7802,44.9373,28.0257c4.3367,2.6662,4.9659,5.8644,2.6099,10.0645
		c-0.4881,0.8703-0.8823,1.7928-1.3341,2.6839c-5.4379,10.7251-6.3093,10.9706-16.0246,4.3338
		c-12.9289-8.8323-25.8661-17.6528-38.748-26.5536c-3.5101-2.4253-7.4998-4.5436-6.426-10.1371
		c0.621-3.2345-2.3163-4.4975-4.507-5.9363c-5.5683-3.6571-11.1275-7.3325-16.7893-10.8407
		c-3.7113-2.2997-4.8828-4.2877-2.0267-8.6776c17.4762-26.861,32.5526-55.0602,44.1008-84.9676
		c12.1944-31.5809,20.2678-64.137,19.5464-98.3311c-0.1403-6.642-1.0231-13.2714-1.6453-19.8989
		c-0.3948-4.2055,0.5357-6.5643,5.5311-7.4316c5.4924-0.9535,10.7201-3.5139,16.0104-5.5136
		c2.6314-0.9946,6.4125-1.2846,5.0498-5.7635c-1.3807-4.5379-5.8561-7.5266-9.6711-6.6291
		c-0.3209,0.0755-0.6844,0.1598-0.9241,0.3628c-7.6718,6.4971-13.1161,0.2543-18.9847-3.347
		c-3.1007-1.9028-2.0284-5.0285-0.775-6.9306c1.5615-2.3698,4.3543-3.9283,7.1622-6.2986
		c-5.4955-4.8236-9.2836-10.122-16.9327-7.3819c-3.1465,1.1273-5.0528-1.3395-6.4639-3.5578
		c-11.416-17.9456-32.0366-19.2854-50.6856-10.5779c-17.9221,8.3682-32.2285,20.9083-43.471,37.2327
		c-24.1185,35.0211-37.7263,73.9844-43.8697,115.7435c-4.1771,28.393-5.4388,56.8965-4.1527,85.6502
		c1.595,35.6595,4.5246,71.1041,10.828,106.251c0.5226,2.9136,1.9872,6.6509,0.1848,8.7833
		c-5.3044,6.2758-0.5193,9.4714,3.1305,13.2054c24.4445,25.0085,48.8995,50.0065,73.349,75.0101
		c1.1626,1.1889,2.3729,2.341,3.435,3.6152c0.879,1.0546,1.5286,2.4191,0.0865,3.4225c-1.2778,0.8891-2.4953,0.1176-3.4635-0.8865
		c-6.9352-7.191-13.8085-14.4427-20.8051-21.5735c-18.8971-19.2594-37.8061-38.5073-56.7948-57.6761
		c-6.7427-6.8067-6.8557-6.6992-14.6376-0.7025c-1.3192,1.0165-2.6665,2.0059-3.9089,3.1112
		c-5.2362,4.6581-5.5729,5.4775-1.1462,10.4832c6.3931,7.2292,13.2742,14.0256,19.8996,21.0515
		c2.7384,2.9039,5.4102,3.4315,8.5874,0.5673c3.5419-3.1927,6.6149-1.7401,9.5246,1.2546
		c16.7152,17.2032,33.4489,34.3887,50.2314,51.5264c3.1407,3.2073,3.4118,6.2696,0.2968,9.5613
		c-0.6866,0.7254-1.323,1.4986-2.0112,2.2222c-6.237,6.5566-7.223,9.5706-15.3128,0.5925
		c-14.7112-16.3265-30.0957-32.0461-45.1815-48.0359c-1.5964-1.6921-3.7094-3.2485-4.5041-5.2883
		c-5.1618-13.2499-17.2896-20.7712-25.4727-31.5057c-2.3624-3.099-4.7681-4.1891-8.3955-1.5596
		c-3.8048,2.7578-5.2749,0.0797-6.0677-3.3226c-3.3283-14.2836-5.6454-28.7529-7.7593-43.2498
		c-3.5069-24.049-6.8615-48.1187-8.9539-72.347c-3.3288-38.543-4.7093-77.0879-1.7776-115.7477
		c1.8922-24.9496,4.9251-49.6948,10.3265-74.1303c6.2245-28.159,16.2873-54.8377,30.5581-79.9454
		c18.5021-32.5519,39.0266-63.6073,65.6386-90.244c8.9764-8.9848,18.5973-17.1762,29.5858-23.6544
		c22.9189-13.5116,36.5941-12.5351,57.4298,4.3124c18.0926,14.6294,32.5237,32.4211,44.3162,52.3669
		c20.3392,34.4016,30.9367,71.9279,36.042,111.3461c4.9153,37.9509,3.1619,75.7799-0.4963,113.6447
		c-0.0958,0.9931-0.2546,1.9828-0.4346,2.9647c-1.8615,10.1518-1.8584,10.076-12.3768,8.0326
		c-14.6986-2.8555-29.4175-5.6072-44.1396-8.3394c-9.111-1.6909-9.6888-1.3062-12.9767,7.6487
		c-0.6885,1.8749-1.3565,3.7579-1.9944,5.6506c-0.5687,1.6875-0.538,3.4051,0.9395,4.5508
		c3.3045,2.5624,7.6115,2.1963,11.3329,3.6317c4.4836,1.7295,7.6025,0.2583,9.5765-4.2732
		c1.4686-3.3715,4.7117-3.5012,7.7548-2.7854c11.0192,2.5921,22.0084,5.315,32.9919,8.0556
		c4.2578,1.0624,5.9028,3.9713,5.3843,8.2359c-0.1206,0.9913-0.1526,1.9933-0.2687,2.9853
		c-1.3957,11.9293-2.3301,12.5478-13.6207,9.0778c-7.9583-2.4459-15.9094-4.9158-23.8834-7.3093
		c-4.7847-1.4361-9.2818-2.9652-13.1398-6.6649c-4.4811-4.2972-10.8995-4.5427-16.7665-5.5867
		c-2.1328-0.3794-3.6978,0.7647-5.066,2.4868c-8.7278,10.9854-7.3297,16.0732,5.8756,20.247
		c4.0336,1.2749,8.0197,3.4443,12.5525,1.3488c1.9349-0.8945,3.906,0.3977,5.7584,1.0377
		c11.6443,4.0235,23.3082,7.9968,34.8779,12.2269c7.9529,2.9078,8.6971,4.4138,7.3948,12.6208
		c-0.3122,1.9669-0.7964,3.9252-1.4016,5.8236c-1.8558,5.8217-2.7689,6.4372-8.6711,4.0635
		c-12.6661-5.094-25.2134-10.4835-37.804-15.7648c-4.1987-1.7613-8.0445-3.7365-6.2034-9.5086
		c0.524-1.6428,0.4636-3.5248-1.2039-4.4633c-5.5228-3.1085-11.2342-5.8301-17.5349-7.0067
		c-1.7813-0.3327-3.4481,0.2455-4.3083,1.826c-2.5143,4.6198-7.4416,8.7831-6.7555,14.0363
		c0.576,4.409,6.6058,4.9539,10.3696,6.7511c18.6268,8.8945,37.4056,17.4701,56.1071,26.2089
		C584.6328,438.4339,588.0087,439.1924,589.6893,442.5061z M604.6544,339.9776c0.3493-4.334-1.924-6.592-6.2414-7.2257
		c-8.2276-1.2076-16.4424-2.5019-24.6667-3.7317c-4.2951-0.6422-7.9669-2.0126-7.6461-7.315c0.31-5.1248-2.701-5.9931-6.8956-6.2106
		c-9.0232-0.4677-9.8735,0.0634-12.0718,9.2c-0.3896,1.6188-0.7701,3.2402-1.1906,4.851c-1.0815,4.142,0.654,6.2041,4.7367,6.9776
		c16.0107,3.0337,31.9896,6.2361,48.0055,9.2411C602.9091,346.557,604.9691,344.4686,604.6544,339.9776z M590.3831,310.3293
		c1.8105,0,3.8011-0.0543,5.7876,0.0122c3.2649,0.1093,6.1992-0.3419,6.1919-4.4953c-0.0066-3.7275-0.2948-7.54-5.1036-8.3554
		c-1.6185-0.2744-3.3176-0.0377-4.9564-0.2321c-9.3967-1.115-20.1852,2.9438-27.1865-7.2583
		c-0.2882-0.4197-1.2098-0.4317-1.8489-0.5794c-6.9915-1.6154-10.4962,0.9261-11.4289,8.2759
		c-1.5206,11.9826-0.0562,14.1175,11.7047,12.5454C572.5356,309.0403,581.3138,309.0891,590.3831,310.3293z M553.629,274.4721
		c0.853,2.8311-1.9565,7.6333,2.8463,9.0991c3.5663,1.0885,8.0837,2.0108,10.5116-2.7124c1.9865-3.8648,5.4363-4.4018,9.2304-4.5917
		c4.9673-0.2485,9.9338-0.5995,14.8838-1.0797c3.4661-0.3363,4.2245-2.4438,3.4847-5.6568
		c-1.3028-5.6584-3.0106-6.9136-8.8392-6.772c-7.575,0.1841-14.9504,2.1024-22.7211,1.2359
		C555.3762,263.1414,553.5152,265.8591,553.629,274.4721z M550.207,243.2456c0.5775,3.945,1.172,7.8876,1.727,11.8358
		c0.3777,2.6871,1.6308,4.3597,4.5952,3.9709c3.0212-0.3961,6.5861-0.7132,5.7519-5.0293c-1.3237-6.8475,2.621-8.859,8.1118-9.9039
		c2.2864-0.4351,4.5611-0.9713,6.8004-1.605c4.6939-1.3284,5.1511-2.7219,2.7336-6.9334c-1.8874-3.2878-4.3525-4.9993-8.2017-3.6907
		c-5.9842,2.0344-11.9758,4.0522-17.9125,6.2187C551.5357,238.9396,549.6708,240.3533,550.207,243.2456z"/>
	<path d="M34.202,1140.2638c8.7664-5.3156,17.8259-5.4989,26.263-7.6405c5.1383-1.3043,10.469-1.8403,15.6282-3.0763
		c4.7392-1.1354,9.5399-1.8138,11.4687-7.9535c1.4648-4.6627,6.8819-4.6395,11.0144-5.5056
		c16.5817-3.4747,33.2046-6.7523,49.7945-10.1886c11.3841-2.3583,22.7134-4.9858,34.1145-7.2551
		c9.2214-1.8356,13.8017,2.8208,12.4693,12.2091c-0.6706,4.7252-4.5202,5.3362-8.0096,6.1726
		c-11.6307,2.7877-23.2998,5.4161-34.9557,8.0984c-15.865,3.6509-31.7249,7.3243-47.601,10.9266
		c-5.443,1.235-10.9798,3.3804-15.3569-2.689c-1.9434-2.6947-4.9227-0.9199-7.4294-0.3933
		c-11.7022,2.4587-23.3751,5.061-35.0992,7.4087C42.8904,1141.1006,39.1224,1142.7416,34.202,1140.2638z"/>
	<path d="M41.6973,1002.6883c8.9485,0.6824,17.8743,1.4545,26.7404,2.9807c5.017,0.8636,9.9224,1.2648,11.3628-5.8788
		c1.0395-5.1563,5.2949-4.9119,9.5775-4.3c22.3579,3.1949,44.7343,6.2609,67.1067,9.3533
		c8.2208,1.1364,16.4646,2.1167,24.6682,3.3635c6.2059,0.9431,7.9718,3.3506,7.3994,9.3575
		c-0.5478,5.7479-2.8435,7.4094-9.6299,6.8379c-28.7985-2.4256-57.5955-4.8691-86.3924-7.3132
		c-4.9738-0.4221-9.6268-1.4166-14.249-3.8265c-7.5199-3.9209-16.2043-2.7714-24.3682-3.8523
		c-8.877-1.1755-17.8545-1.5881-26.7856-2.3627c-1.3172-0.1141-2.6534-0.2721-3.9211-0.6245
		c-1.3529-0.3758-2.327-1.2813-2.1614-2.8541c0.1703-1.6169,1.4258-2.3226,2.7715-2.241
		C29.7823,1001.6907,35.738,1002.2196,41.6973,1002.6883z"/>
	<path d="M19.659,1039.4663c2.7062-4.0402,6.2576-3.1223,9.34-3.149c12.965-0.1127,25.9313-0.0962,38.8971-0.094
		c3.9909,0.0006,7.9261,0.1948,11.4999-2.2828c3.2168-2.2297,7.0728-1.6694,10.678-1.4485
		c27.8848,1.7091,55.8131,1.8364,83.7279,2.4576c1.9926,0.0443,4.0069,0.0692,5.9681,0.3772
		c5.2579,0.8256,7.0749,3.2244,7.2565,8.8599c0.1635,5.0792-2.3719,6.9102-7.2299,7.3313
		c-17.9121,1.5532-35.8751,0.8817-53.8058,1.5267c-12.6215,0.4539-25.2673,0.2343-37.8893,0.6801
		c-5.6127,0.198-10.0122-0.5129-10.8681-7.1373c-0.6439-4.9834-4.278-5.1523-8.1463-5.1437
		c-12.967,0.0292-25.9347,0.0387-38.901-0.072C26.9424,1041.344,23.5155,1042.1272,19.659,1039.4663z"/>
	<path d="M43.2747,1171.2422c1.5137-3.9293,4.9343-3.7684,7.622-4.493c8.9914-2.4242,18.0827-4.4752,27.0894-6.8458
		c6.989-1.8396,14.222-2.8103,19.9115-8.3317c2.1436-2.0803,6.0855-2.446,9.2904-3.2723
		c27.0793-6.9817,54.1746-13.9015,81.274-20.8047c4.0671-1.036,8.5868-3.4524,11.3386,2.0924
		c3.2633,6.5754,4.7976,12.0466-5.6327,14.9775c-28.5182,8.0138-56.9523,16.3308-85.3552,24.746
		c-5.3277,1.5782-9.1221,1.2694-10.9417-4.6514c-1.4824-4.8232-4.8927-4.4731-8.8063-3.4252
		c-13.503,3.6157-27.0407,7.1014-40.5718,10.6113C46.943,1172.2474,45.332,1173.0887,43.2747,1171.2422z"/>
	<path d="M118.2833,1218.3864c-3.2706-1.0585-5.6128,0.3322-8.0496,1.3951c-10.9668,4.7845-21.9494,9.533-32.9233,14.3013
		c-1.5248,0.6626-2.9889,1.4972-4.5593,2.0148c-2.2966,0.7565-5.1989,3.2734-6.7524-0.353c-1.2167-2.84,1.8836-3.8431,3.9081-4.7877
		c3.9135-1.8257,7.9114-3.4733,11.8948-5.1459c8.2745-3.4741,16.574-6.8887,24.8398-10.3833
		c3.8947-1.6462,7.1949-3.7618,5.8523-8.9069c-1.2719-4.8741,1.0726-7.2103,5.4917-8.9066
		c28.2394-10.8405,56.3839-21.9277,84.6108-32.801c5.8867-2.2673,7.9903-1.1761,10.128,4.1804
		c2.2641,5.6732,1.7373,7.7139-3.7909,10.2762c-27.4488,12.7234-54.9705,25.2897-82.4573,37.9312
		C123.6867,1218.4836,120.9027,1219.4353,118.2833,1218.3864z"/>
	<path d="M165.603,722.4165c2.1299-0.1324,3.2477,1.8154,4.6515,3.066c9.1888,8.1868,18.2834,16.4792,27.4068,24.7393
		c1.4784,1.3384,2.724,3.3345,4.4547,3.9309c14.8279,5.1089,23.5265,17.996,34.847,27.4643
		c13.7687,11.516,26.7397,23.9915,39.927,36.1912c2.3203,2.1466,6.324,4.0528,5.2906,7.7989
		c-1.2523,4.5397-4.7888,8.0981-8.869,10.3646c-3.2864,1.8256-5.4127-1.5421-7.5758-3.4075
		c-13.6048-11.7323-27.1354-23.5507-40.7072-35.3212c-8.0432-6.9756-16.0611-13.9825-24.2012-20.8437
		c-3.9824-3.3568-6.7314-6.5934-2.1266-11.5263c3.5738-3.8284,1.0215-6.4265-2.0004-9.0726
		c-9.7563-8.5433-19.4211-17.1917-29.0628-25.8646c-1.4527-1.3066-2.817-2.8271-3.8078-4.4949
		C163.0429,724.1166,163.8506,722.9331,165.603,722.4165z"/>
	<path d="M68.951,851.8937c1.3067,0.7169,2.7274,1.5803,4.2174,2.3005c12.2654,5.9295,24.5953,11.7287,36.7917,17.7964
		c4.6607,2.3187,8.6007,3.5042,11.7958-2.1041c2.3306-4.0908,5.5571-3.6482,9.3435-1.6107
		c26.6275,14.3284,53.3662,28.4504,79.9785,42.8066c6.9798,3.7654,7.291,5.0295,5.0066,10.733
		c-2.8956,7.2297-4.8168,7.9866-11.9729,4.567c-26.0815-12.4634-52.1538-24.9461-78.2271-37.4267
		c-1.7979-0.8607-3.9896-1.3609-5.299-2.7082c-13.8714-14.2734-32.9329-19.396-49.744-28.4703
		c-1.4267-0.7701-2.8421-1.5984-4.1181-2.5864c-0.3504-0.2714-0.3812-1.2886-0.1971-1.8433
		C66.8496,852.3732,67.6763,851.8445,68.951,851.8937z"/>
	<path d="M189.3519,973.3428c-1.001-0.2178-2.6396-0.506-4.2414-0.9327c-27.3106-7.2756-54.6991-14.2344-82.2905-20.3773
		c-1.944-0.4327-3.8361-1.1003-5.75-1.6664c-3.9896-1.1804-5.8929-3.4322-5.6726-8.0057c0.38-7.8893-0.0009-8.1974-7.3791-10.2206
		c-13.468-3.6926-26.9853-7.2057-40.4761-10.8159c-1.5785-0.4224-3.229-0.7941-4.6172-1.589
		c-0.4739-0.2715-0.4234-1.8005-0.2676-2.6949c0.0864-0.4959,0.8968-1.2383,1.361-1.2241c1.2766,0.0392,2.5775,0.3057,3.8076,0.682
		c13.6696,4.1814,27.341,8.3581,40.977,12.6471c2.571,0.8087,5.3231,2.0718,7.7648,1.2772
		c6.9477-2.261,13.123,0.3991,19.3994,2.3447c26.3616,8.1712,52.7061,16.3989,79.0107,24.7515
		c7.0331,2.2335,8.2672,4.7227,6.3286,10.8203C195.9596,972.576,194.5344,973.5568,189.3519,973.3428z"/>
	<path d="M29.193,1107.6442c1.8489-3.4342,4.7221-3.1276,7.2398-3.5033c12.797-1.9103,25.5855-3.8916,38.4132-5.5724
		c3.938-0.5159,6.3727-1.9417,6.0661-6.1346c-0.496-6.7833,3.5277-8.2136,9.2069-8.8389
		c20.4665-2.2526,40.8936-4.8599,61.3447-7.2552c9.5602-1.1198,19.1393-2.0787,28.7133-3.0785
		c6.5038-0.6793,8.2783,0.4923,9.2112,5.9564c1.077,6.3079-0.3392,8.7504-6.5243,9.8097
		c-30.4449,5.2139-60.9133,10.2902-91.3743,15.4098c-0.6538,0.11-1.3652,0.3492-1.9714,0.2032
		c-18.0132-4.3427-35.2604,2.4269-52.888,3.6149c-1.6532,0.1115-3.3045,0.3141-4.9578,0.3248
		C31.0757,1108.5839,30.4761,1108.1481,29.193,1107.6442z"/>
	<path d="M254.7648,857.7629c-1.3715,4.112-4.1196,7.5142-7.4908,10.2161c-3.1188,2.4996-5.5785-0.3315-7.9039-2.0408
		c-23.0849-16.9706-46.1401-33.9815-69.1899-50.9998c-1.3361-0.9866-3.0486-1.881-3.7488-3.2473
		c-7.3995-14.4408-22.3733-20.36-33.7989-30.2484c-3.0173-2.6113-6.3472-4.8582-9.4372-7.3901
		c-1.2566-1.0295-2.6628-2.3843-0.8466-4.0599c1.1655-1.0754,2.4475-0.4998,3.5819,0.3342
		c5.9058,4.3414,11.8484,8.6339,17.7107,13.0331c5.8619,4.3989,11.6968,8.8374,17.4418,13.3868
		c3.4866,2.761,6.5575,4.3097,10.2033,0.0049c3.6238-4.2789,7.0304-1.6295,10.3375,0.9846
		c14.8998,11.7764,29.8382,23.504,44.775,35.2336c7.8609,6.1732,15.7513,12.3088,23.6188,18.4736
		C252.1131,853.0856,254.3438,854.6421,254.7648,857.7629z"/>
	<path d="M54.3719,883.1118c1.8323,0.6954,4.307,1.6197,6.7708,2.5723c12.3841,4.7885,24.7562,9.6084,37.1535,14.3624
		c3.4313,1.3159,6.7086,2.5335,9.945-1.036c2.363-2.6063,5.519-1.2907,8.3509-0.0867c28.1234,11.9572,56.2889,23.8162,84.354,35.909
		c6.5085,2.8044,7.171,10.5983,1.7256,15.1832c-2.1128,1.779-4.2458,1.2006-6.5291,0.3593
		c-28.9865-10.6807-57.9943-21.3038-86.974-32.003c-3.1257-1.154-6.5024-2.5182-6.4751-6.6288
		c0.0308-4.6258-2.9355-6.0469-6.5426-7.5601c-12.5608-5.2691-25.1406-10.4669-38.0781-14.7595
		c-1.8788-0.6235-3.7468-1.3399-5.5066-2.2358c-0.8388-0.4269-1.4798-1.3802-1.0417-2.506
		C51.8937,883.7334,52.4796,882.9713,54.3719,883.1118z"/>
	<path d="M255.7965,641.8944c2.723,0.3106,3.7963,2.1056,5.1107,3.5691c7.5478,8.4028,15.1189,16.785,22.6137,25.2349
		c2.6638,3.0031,5.1925,6.0537,9.4354,6.9127c3.1421,0.6361,5.06,3.0746,7.0537,5.2825
		c17.811,19.7255,35.5992,39.4717,53.3789,59.2255c2.1773,2.4189,5.4255,4.8196,2.7519,8.502
		c-2.9016,3.9965-6.032,8.2561-11.1859,9.3427c-2.9226,0.6161-4.3631-2.626-6.0967-4.5101
		c-12.8223-13.9355-25.5682-27.9413-38.346-41.9178c-5.6035-6.1291-11.1757-12.2877-16.8582-18.3427
		c-3.3062-3.523-5.232-6.833-0.8086-11.0138c3.4976-3.3058,0.767-5.9907-1.4935-8.4794
		c-7.593-8.3597-15.2354-16.6745-22.8298-25.0331c-1.554-1.7104-3.262-3.3763-4.386-5.3541
		C253.0934,643.4784,254.4144,642.3507,255.7965,641.8944z"/>
	<path d="M323.4947,781.7873c-1.7809,4.481-5.1805,8.2494-9.4702,10.735c-3.9018,2.261-6.04-1.868-8.0974-4.0967
		c-18.7597-20.3217-38.5103-39.6636-58.0848-59.1809c-0.9424-0.9396-2.1877-1.792-2.6688-2.9449
		c-6.4125-15.3677-20.5763-23.995-31.0313-35.8354c-1.3197-1.4947-2.8953-2.7638-4.2102-4.2621
		c-1.3328-1.5187-2.7441-3.4495-1.0742-5.2736c2.0464-2.2354,3.5866,0.0837,4.8737,1.3651
		c5.4282,5.405,10.7554,10.9117,16.1038,16.3966c3.2535,3.3365,6.4645,6.7144,9.7209,10.048
		c2.0794,2.1285,3.5576,5.0337,6.4658,6.1157c3.5701,1.3283,5.1125-2.3909,7.6705-3.6344c2.5039-1.2175,4.5221-0.4843,6.3008,1.3331
		c2.5626,2.6187,5.0665,5.2947,7.5978,7.9441c17.027,17.8211,34.0714,35.6259,51.0599,53.4836
		C320.6784,776.1115,323.1435,778.0537,323.4947,781.7873z"/>
	<path d="M187.6595,701.0481c2.3179-0.351,3.4046,1.5576,4.7808,2.9105c8.3022,8.1611,16.4941,16.437,24.913,24.4754
		c3.6315,3.4673,6.6889,8.6725,13.3922,5.1719c2.2305-1.1647,4.2973,1.1192,5.9684,2.7629
		c20.6344,20.2955,41.2678,40.5919,61.8773,60.9126c2.1028,2.0734,4.9865,4.2346,3.1816,7.607
		c-2.1953,4.102-5.0314,8.1708-9.5959,9.6911c-2.6972,0.8984-4.6212-2.1669-6.5023-3.936
		c-10.178-9.5726-20.2511-19.2567-30.4051-28.8551c-10.153-9.5975-20.3611-19.1367-30.5398-28.7071
		c-3.3809-3.1789-7.2858-5.8812-4.0342-11.7204c1.8446-3.3128-1.7794-5.3846-3.8027-7.3424
		c-8.6031-8.3246-17.3899-16.459-26.0575-24.7176c-1.6734-1.5944-3.2766-3.3187-4.6043-5.2003
		C185.3049,702.7885,186.0825,701.6392,187.6595,701.0481z"/>
	<path d="M102.8168,795.0973c2.1343,0.1113,3.6117,1.5544,5.2527,2.6328c11.1073,7.2994,22.2105,14.6049,33.2877,21.9498
		c3.3176,2.2,6.3998,4.7556,10.8177,4.3596c2.8211-0.253,5.0503,1.4825,7.2393,2.9731
		c24.4477,16.65,48.9185,33.2666,73.2793,50.0429c5.662,3.899,5.5063,4.8223,0.483,12.1287
		c-3.9918,5.8062-4.0959,5.9724-10.1795,2.1619c-25.066-15.7004-50.0437-31.542-75.1045-47.2509
		c-4.4072-2.7626-7.2827-5.4642-4.0292-11.1873c2.8034-4.931-1.6425-7.2168-4.8353-9.377
		c-11.2837-7.6345-22.701-15.0714-34.0496-22.6102c-1.3563-0.9011-2.6705-1.8964-3.8494-3.0116
		c-0.2848-0.2695-0.1411-1.3052,0.1479-1.7805C101.5677,795.6503,102.2848,795.4309,102.8168,795.0973z"/>
	<path d="M85.0453,1270.5562c-2.0842-0.7075-2.7156-2.1975-1.5189-3.8102c2.2274-3.0016,5.5755-4.6853,8.7635-6.4597
		c7.8445-4.3656,15.7946-8.5437,23.5969-12.9823c5.3809-3.0609,11.4285-5.1721,14.2925-11.6912
		c0.909-2.0691,4.0365-3.3148,6.3381-4.5975c24.9761-13.92,49.9952-27.7629,74.9877-41.6536
		c3.6237-2.014,7.0544-4.2507,10.0109,1.0481c2.7397,4.91,2.5616,7.1613-2.489,10.8175
		c-6.7315,4.8735-13.7128,9.4036-20.6141,14.0405c-17.1145,11.4993-34.2015,23.0403-51.3905,34.4271
		c-6.4454,4.2698-6.8853,4.421-12.5081-1.212c-3.6689-3.6758-6.5016-2.0345-9.6899-0.1874
		c-11.503,6.6646-22.9648,13.4005-34.4389,20.1151C88.6949,1269.4,87.1909,1270.853,85.0453,1270.5562z"/>
	<path d="M199.9921,1314.7109c-4.1663-1.4224-5.5206,1.7418-7.2824,4.0226c-6.5148,8.4341-12.9507,16.9292-19.4602,25.3676
		c-1.4193,1.8398-2.9474,3.6101-4.5644,5.2775c-0.9897,1.0205-2.3829,1.2701-3.5967,0.3826
		c-1.1678-0.854-1.6389-2.2233-0.906-3.5046c0.9832-1.719,2.1936-3.3226,3.4233-4.8838
		c6.3901-8.1119,12.8284-16.1859,19.2259-24.292c2.507-3.1763,4.8313-6.1837,2.5576-10.7871
		c-2.2037-4.4615,1.4286-7.5118,3.8986-10.5176c13.3251-16.2144,26.7503-32.3464,40.1343-48.5122
		c3.8244-4.6195,7.5722-9.3038,11.4538-13.8743c4.7813-5.6298,5.9408-5.8501,10.538-2.4563
		c5.5815,4.1201,6.0154,6.3871,1.7901,12.4401c-5.91,8.4662-12.0056,16.803-18.0334,25.1866
		c-9.9185,13.795-19.8138,27.6072-29.794,41.3577C207.057,1313.1135,204.8858,1317.0117,199.9921,1314.7109z"/>
	<path d="M242.5388,1220.3081c-0.2336,3.6821-2.5994,5.7355-4.5635,7.882c-9.44,10.3182-19.0145,20.5132-28.5094,30.7814
		c-7.6862,8.312-15.2856,16.7048-23.0048,24.9861c-4.2777,4.5891-8.3807,9.1233-14.6514,11.6072
		c-5.5757,2.2085-8.9153,7.8469-13.1394,12.0668c-5.4172,5.4116-10.5862,11.0709-15.9389,16.5483
		c-1.5298,1.5653-3.2686,4.5013-5.6373,2.493c-2.7972-2.3718,0.5442-4.0166,1.9388-5.4995
		c7.5262-8.002,15.1467-15.9159,22.7823-23.8141c5.4713-5.6594,5.6853-5.7158,2.0533-13.1213
		c-1.6313-3.3262-0.8213-5.8711,1.3113-8.1711c3.8442-4.1459,7.8262-8.1764,11.9232-12.0736
		c17.1301-16.2953,34.3194-32.5284,51.5022-48.7681c1.8857-1.7822,3.7071-4.4484,6.7559-2.6212
		C238.5101,1214.491,241.0146,1217.1776,242.5388,1220.3081z"/>
	<path d="M260.2123,1393.683c1.8776-5.3733,3.8488-11.0084,5.8161-16.645c1.7506-5.0159,3.3395-10.0953,5.2879-15.033
		c2.0779-5.2656,3.9245-9.9192-3.4915-12.8912c-4.2212-1.6915-2.4072-5.5804-1.2284-8.6779
		c4.2529-11.1744,8.5709-22.3242,12.87-33.4811c5.1351-13.3268,10.3159-26.6361,15.391-39.9855
		c1.5908-4.1846,3.366-6.964,8.7422-4.8304c8.0904,3.2107,9.9698,5.0289,8.0479,10.9266
		c-4.3217,13.2616-8.9887,26.4104-13.4673,39.6212c-3.4117,10.0637-6.6816,20.1759-10.1512,30.2195
		c-1.6129,4.6687-2.893,9.5623-7.549,12.5104c-2.4371,1.5431-2.6079,4.5181-3.4847,6.9886
		c-3.2197,9.0712-6.3892,18.1603-9.5919,27.2375c-0.663,1.879-1.3074,3.7716-2.1089,5.5925
		c-0.6496,1.4761-1.335,3.3381-3.4162,2.8838C259.5726,1397.6161,260.4591,1395.5609,260.2123,1393.683z"/>
	<path d="M292.0305,1408.2896c0.5924-12.0131,4.3364-21.2604,6.8365-30.7621c1.7508-6.6532,4.9465-12.8965,2.408-20.3239
		c-0.9244-2.7045,0.8412-6.4718,1.7658-9.6416c6.4266-22.0316,12.9305-44.041,19.4619-66.042
		c2.8445-9.5815,4.4492-10.2325,13.2464-6.6511c4.5226,1.8413,5.8847,4.4678,4.6038,9.3048
		c-3.3202,12.537-6.2417,25.1798-9.2986,37.7861c-2.7427,11.3103-5.4247,22.6354-8.1927,33.9393
		c-1.1867,4.8462-2.9409,8.9857-9.377,7.6108c-3.7167-0.7942-5.3459,1.499-6.2437,4.8208
		c-2.5999,9.6201-5.2776,19.2208-8.0633,28.7888C298.1216,1400.7469,297.7203,1404.8661,292.0305,1408.2896z"/>
	<path d="M278.9939,1250.8542c-0.0731,2.7407-1.2876,4.745-2.3894,6.7887c-12.6265,23.4203-25.2075,46.8652-37.9134,70.2424
		c-3.4476,6.3431-4.1095,6.8446-10.9107,4.3083c-4.6658-1.7399-6.8545,0.0688-8.925,3.5056
		c-5.4913,9.1157-10.9288,18.2643-16.4886,27.338c-1.4562,2.3765-2.5444,7.3024-5.5703,5.6792
		c-4.4097-2.365-0.063-5.6304,1.441-8.1654c4.2393-7.1456,8.8107-14.0942,13.0498-21.2401
		c3.1583-5.3241,7.5435-10.1471,7.0302-17.1046c-0.1058-1.4352,1.1578-3.0717,2.0322-4.4635
		c14.6852-23.3789,29.4053-46.7362,44.1291-70.0907c1.6062-2.5476,3.1674-5.566,6.9562-3.7777
		C274.7028,1245.417,278.0734,1247.0746,278.9939,1250.8542z"/>
	<path d="M369.5973,610.2225c2.2936-4.4171-0.6598-6.9439-3.1418-9.649c-7.1925-7.8392-14.3938-15.6706-21.5346-23.5566
		c-1.0398-1.1483-2.6615-2.6323-0.9985-4.197c1.5348-1.444,3.1814-0.1991,4.2979,1.0104
		c7.2141,7.8162,14.3413,15.7123,21.5291,23.5529c2.7173,2.9642,5.2794,6.006,10.1819,3.9326
		c2.9203-1.235,4.9728,1.1249,6.802,3.0677c17.3216,18.3979,34.5899,36.8463,51.9535,55.2044
		c2.8595,3.0233,2.9025,5.7225,0.0949,8.6364c-0.6919,0.7181-1.3587,1.4603-2.0387,2.1899
		c-7.4539,7.9989-7.9756,8.0823-15.3795,0.2151c-15.494-16.4633-30.9588-32.9555-46.2705-49.5878
		C372.3275,618.0375,368.2101,615.3454,369.5973,610.2225z"/>
	<path d="M380.5444,1293.9137c-2.6648,23.0988-5.4227,46.1874-7.936,69.3026c-0.7306,6.7191-5.6504,11.813-6.0685,18.7755
		c-0.6552,10.9172-2.3928,21.7697-3.6846,32.6481c-0.186,1.5663,0.2695,3.7238-1.9095,4.0417
		c-2.6832,0.392-3.4825-1.9521-3.3846-3.8463c0.3078-5.9585,0.7472-11.9363,1.6396-17.8303
		c0.6971-4.6033,1.0171-9.248,1.7217-13.8138c0.9895-6.4104,1.8244-11.5632-7.0336-12.9437
		c-3.9766-0.6199-3.0666-5.2284-2.5117-8.5496c2.6287-15.7301,5.2813-31.4562,7.8759-47.1919
		c1.2425-7.5359,2.3421-15.0952,3.5665-22.6342c1.0942-6.7382,2.5413-8.037,8.025-7.4314
		C378.4828,1285.2839,381.1301,1287.8152,380.5444,1293.9137z"/>
	<path d="M395.1672,1418.5289c-5.7664-0.2715-6.045-4.3054-5.6361-8.5345c0.705-7.2893,1.7096-14.5496,2.4247-21.8381
		c0.5506-5.6113,1.5831-11.3508-4.7665-14.9801c-2.576-1.4725-2.5302-4.5343-2.3213-7.238
		c1.7703-22.8951,3.433-45.8003,5.4532-68.6736c0.6437-7.2896,2.4942-8.2621,9.8547-7.1744
		c6.1263,0.9054,7.449,2.1079,7.4016,8.3588c-0.1288,16.9778-0.2914,33.9607-0.8813,50.9261
		c-0.1841,5.2972-0.9427,10.5884-0.8178,15.9275c0.0895,3.8228-0.6143,7.4291-4.5507,9.2316
		c-3.295,1.5087-3.612,4.3771-4.0323,7.4199c-1.188,8.6003-1.2733,17.2478-0.9021,25.8756
		c0.1617,3.7565-0.247,7.2791-1.3307,10.8011L395.1672,1418.5289z"/>
	<path d="M409.7542,518.7946c7.4046,7.2857,13.9239,13.7662,20.5225,20.1652c3.2954,3.1959,6.2292,6.7393,11.4857,7.2388
		c3.4146,0.3245,5.3878,3.6486,7.7351,5.9603c13.9616,13.7492,27.9356,27.4859,41.8343,41.2984
		c2.4561,2.4409,6.8734,4.3455,5.1476,8.7271c-1.9565,4.9675-5.5756,9.1552-10.192,11.8701
		c-2.8505,1.6763-4.7621-1.4062-6.5753-3.2077c-9.6612-9.5987-19.2534-19.2668-28.8886-28.8918
		c-5.8749-5.8685-11.7426-11.7456-17.6941-17.5359c-3.7124-3.6118-6.0286-7.1312-1.3271-11.7579
		c2.6901-2.6473,0.5809-4.7634-1.3404-6.7447c-6.0108-6.1987-12.0707-12.3525-17.9612-18.664
		C410.8619,525.4968,407.8647,524.2298,409.7542,518.7946z"/>
	<path d="M430.3354,503.6206c2.5761-1.3596,3.7781,0.7553,5.1239,1.9659c5.1911,4.6699,10.3748,9.3592,15.3422,14.2633
		c3.9402,3.89,7.3218,8.0999,12.9875,2.015c2.2115-2.3753,4.9418-0.4933,7.0111,1.4063
		c15.6793,14.3945,31.3435,28.8057,47.0411,43.1802c3.2922,3.0148,3.2436,5.8468,0.7538,9.5732
		c-7.8331,11.7236-9.2542,11.9827-19.0651,2.5517c-12.9471-12.4456-25.9693-24.8132-38.9639-37.2094
		c-3.125-2.981-6.4073-5.7734-7.2734-10.4148c-0.5859-3.1405-3.3273-4.8522-5.449-6.9373
		c-4.9813-4.8953-10.0088-9.747-14.8692-14.7601C431.526,507.761,428.9713,506.4821,430.3354,503.6206z"/>
	<path d="M423.0925,1393.6045c-1.0326-6.4905,0.5758-14.972-3.6421-22.7794c-1.2933-2.3937-0.7188-5.8533-0.8108-8.8306
		c-0.616-19.9457,0.4189-39.915-1.0009-59.8564c-0.4929-6.9227,1.1799-9.0002,6.0681-9.2688
		c7.4827-0.4111,11.3793,2.2424,11.8413,8.6736c1.43,19.9031,2.6194,39.8231,3.9987,59.73
		c0.4431,6.3938,0.3405,12.0616-8.0169,13.2797c-3.7101,0.5406-4.0258,3.8937-3.967,7.0594
		c0.136,7.3118,0.2278,14.6241,0.3576,21.936c0.0354,1.995,0.2928,3.9977,0.1745,5.9805c-0.1251,2.0969,1.057,5.5446-2.4168,5.3848
		c-2.9369-0.1354-2.3-3.5269-2.5226-5.7047c-0.2019-1.9752-0.0595-3.9858-0.0622-5.9808
		C423.0898,1400.5676,423.0925,1397.9075,423.0925,1393.6045z"/>
	<path d="M465.7893,466.4213c8.5406,3.6053,13.3545,8.7449,18.9775,12.63c4.0423,2.7931,7.4578,6.5674,13.062,6.5248
		c2.7222-0.0208,4.6219,2.452,6.7589,4.0082c13.7224,9.9926,27.4465,19.9832,41.1465,30.0066
		c7.8354,5.7327,7.9485,6.4158,2.9021,14.3794c-0.5342,0.8433-1.0726,1.6852-1.6417,2.5052
		c-4.9563,7.1425-5.455,7.2826-12.272,1.9124c-14.1203-11.1235-28.1598-22.3495-42.2628-33.4951
		c-4.1323-3.2658-8.0304-6.387-3.4851-12.2159c2.1862-2.8037,0.3101-5.0175-1.9244-6.7462
		c-4.2082-3.2557-8.586-6.2963-12.7327-9.6262C471.5635,474.093,468.0073,472.5615,465.7893,466.4213z"/>
	<path d="M585.8931,1355.7524c-0.2932,0.6335-0.4077,1.4489-0.8657,1.7637c-1.3259,0.9108-2.6483,0.3093-3.4141-0.8009
		c-3.2099-4.6547-6.3157-9.382-9.4029-14.1195c-1.0889-1.6709-2.0412-3.4335-3.011-5.1792
		c-1.7078-3.0742-4.0262-4.5529-7.3199-2.4094c-5.5333,3.6013-8.3926,0.7408-10.9643-3.9971
		c-7.6235-14.0444-15.4017-28.0051-23.1408-41.9867c-1.7188-3.1055-3.0738-5.9846,1.0436-8.4784
		c5.6053-3.3951,10.9773-4.0493,13.5457-1.0557c1.9404,2.2616,3.549,4.8252,5.1648,7.3445
		c5.3904,8.4052,10.9047,16.7396,16.006,25.3185c3.6442,6.1281,8.0448,11.567,9.0774,19.4886
		c0.7444,5.7117,6.1509,10.8071,9.4415,16.1996C583.591,1350.3602,585.8175,1352.562,585.8931,1355.7524z"/>
	<path d="M562.278,1264.7416c2.8931-0.0233,4.5547,1.6167,6.0718,3.4082c9.4462,11.1544,18.8914,22.3101,28.2761,33.5159
		c1.7462,2.0848,3.3315,4.6295,1.403,7.2268c-2.9691,3.9988-0.7003,6.7432,1.6524,9.6602
		c3.7517,4.6517,7.515,9.2959,11.1832,14.0131c1.0452,1.344,1.7326,3.2144,0.3766,4.5428
		c-2.1989,2.1538-3.5859-0.1667-4.7355-1.5483c-3.1844-3.827-6.1782-7.8131-9.2451-11.7379
		c-2.809-3.5947-4.8423-7.9374-11.118-5.8167c-3.0887,1.0439-5.0953-2.4734-6.8708-4.8746
		c-8.2947-11.2185-16.619-22.4161-24.805-33.7136c-1.6718-2.3074-4.5604-4.8391-2.6325-7.944
		C554.1883,1267.6823,558.4983,1266.2404,562.278,1264.7416z"/>
	<path d="M223.1178,904.2063c-2.8084,2.3887-4.7276,0.5743-6.6463-0.5256c-43.2544-24.7933-86.4961-49.6089-129.7338-74.4316
		c-1.1493-0.6598-2.2674-1.391-3.3259-2.1874c-1.4795-1.113-2.1637-2.5382-0.9409-4.2237c0.9465-1.3043,2.3093-1.1512,3.565-0.5176
		c1.1817,0.5963,2.2616,1.3906,3.4098,2.0576c41.6717,24.2082,83.3611,48.3864,124.9913,72.6658
		C217.6407,898.9123,221.8636,899.9239,223.1178,904.2063z"/>
	<path d="M22.4361,1073.4397c1.1116-4.0472,4.5639-3.2258,7.3333-3.3909c22.5901-1.3458,45.1893-2.5385,67.7786-3.8961
		c26.8899-1.616,53.771-3.3782,80.6608-4.9979c3.7009-0.2229,7.7725-1.7084,11.2736,1.8756
		C179.9152,1067.1708,30.6085,1076.3372,22.4361,1073.4397z"/>
	<path d="M226.2467,1208.0172c-10.6556,8.925-21.2656,17.9054-31.9761,26.7642c-23.8517,19.7278-47.7374,39.415-71.6549,59.0634
		c-3.335,2.7396-6.8621,5.2616-10.4305,7.6931c-1.62,1.1038-3.2353,0.3184-4.3088-1.1639
		c-0.9299-1.2839-0.3812-2.6942,0.5558-3.6116c1.6559-1.6211,3.5259-3.0321,5.3628-4.4584
		c29.4281-22.8522,58.8794-45.6746,88.2903-68.5488c7.5492-5.8712,14.9776-11.8981,22.4614-17.8534
		C225.1134,1206.6068,225.6801,1207.312,226.2467,1208.0172z"/>
	<path d="M287.7669,1256.0925c2.0493,3.6376-0.331,6.1136-1.4299,8.5642c-12.789,28.5212-25.7066,56.9847-38.5552,85.4791
		c-3.8264,8.486-7.537,17.024-11.3161,25.5314c-0.8094,1.8219-1.5232,3.7155-2.5707,5.3955
		c-1.4585,2.3389-2.2943,6.7706-6.0469,4.8644c-3.0865-1.5679-0.4581-4.7717,0.5762-7.0183
		c5.7002-12.381,11.5149-24.7094,17.3052-37.0487c12.1476-25.8868,24.2714-51.7848,36.5057-77.6306
		C283.5534,1261.4449,283.9255,1257.8159,287.7669,1256.0925z"/>
	<path d="M189.502,983.2802c-0.841,1.6141-2.1313,2.0405-3.4403,1.7811c-51.5591-10.2183-103.1113-20.4711-154.6459-30.8118
		c-0.6426-0.1289-1.045-1.4542-1.4752-2.0952c0.8614-1.6203,2.1668-1.9871,3.4622-1.7314
		c51.5696,10.1817,103.1326,20.3966,154.6773,30.7032C188.7079,981.2513,189.0871,982.6198,189.502,983.2802z"/>
	<path d="M141.8265,745.3563c5.5284,0.2578,7.8256,3.4033,10.5434,5.6544c35.0953,29.0688,70.16,58.1748,105.1339,87.3893
		c2.5956,2.1682,8.5318,4.8901,6.0874,7.6275c-3.5293,3.9521-6.6197-2.0917-9.2845-4.2883
		c-35.1644-28.9847-70.1702-58.1622-105.1779-87.3365C146.4494,752.1698,143.2068,750.2725,141.8265,745.3563z"/>
	<path d="M333.1,769.3184c-2.5054,1.402-3.6801-0.6269-4.9471-1.9709c-30.9883-32.8749-61.9633-65.7624-92.8665-98.7171
		c-1.839-1.9611-6.1091-4.265-3.0993-7.1262c3.337-3.1723,4.8058,1.737,6.5363,3.5948
		c30.5703,32.8177,61.0554,65.7149,91.5239,98.6272C331.6779,765.2714,334.4156,766.309,333.1,769.3184z"/>
	<path d="M352.7264,1283.9866c1.411,8.6592-1.189,15.2927-2.4193,21.8972c-6.2628,33.6215-12.9401,67.166-19.5211,100.7279
		c-0.601,3.0649-0.237,8.219-4.525,7.4023c-4.4032-0.8385-2.0055-5.5245-1.3751-8.4897
		c7.9398-37.3464,15.9784-74.6719,24.0354-111.9933C349.5276,1290.7231,350.0279,1287.7968,352.7264,1283.9866z"/>
	<path d="M446.1982,1297.2484c3.8684,1.1919,3.3609,3.8717,3.6222,5.9968c4.0975,33.338,8.1353,66.6833,12.1813,100.0277
		c0.1602,1.3197,0.337,2.6439,0.3768,3.97c0.0538,1.7867-0.4765,3.4797-2.5146,3.574c-1.3854,0.0641-2.3952-1.1968-2.7725-2.5078
		c-0.5486-1.9075-0.9913-3.8722-1.2149-5.8425c-3.6357-32.046-7.2509-64.0947-10.7967-96.1508
		C444.7573,1303.4014,444.2193,1300.3463,446.1982,1297.2484z"/>
	<path d="M201.7058,1153.132c-0.2403,2.1901-1.5671,2.6458-2.8093,3.0297c-41.0067,12.6746-81.1696,27.8475-121.9514,41.1882
		c-6.0067,1.965-11.8846,4.3204-17.865,6.3702c-2.08,0.7131-4.9995,2.2106-5.9001-0.954c-0.8892-3.1241,2.5835-3.4575,4.5556-4.1398
		c7.2332-2.5027,14.5412-4.7981,21.8623-7.0369c39.1341-11.9677,78.2158-24.0955,116.8165-37.7156
		C197.9302,1153.3391,199.3939,1152.3574,201.7058,1153.132z"/>
	<path d="M559.1776,1375.0035c-0.6326,0.8573-1.0463,1.9738-1.7802,2.2556c-0.7331,0.2813-2.0557,0.0159-2.6385-0.5269
		c-0.9308-0.8666-1.5818-2.1041-2.1467-3.283c-12.9155-26.9604-25.808-53.9319-38.6808-80.9128
		c-0.5661-1.1863-1.0127-2.4561-1.3131-3.7343c-0.2333-0.993,0.1447-1.9816,1.1373-2.4447c1.0483-0.4893,2.08-0.0211,2.6396,0.8044
		c1.1098,1.6371,2.1103,3.3683,2.9749,5.1487c12.4821,25.6984,24.9386,51.4094,37.3837,77.1259
		C557.6168,1371.2201,558.3403,1373.071,559.1776,1375.0035z"/>
	<path d="M449.9177,485.1704c2.72-0.2095,4.1133,1.9286,5.8242,3.3802c9.9012,8.4002,19.7236,16.8934,29.6224,25.2965
		c12.9435,10.9878,25.9465,21.9054,38.8909,32.892c2.283,1.9378,4.4407,4.0286,6.5858,6.1211
		c0.9589,0.9354,1.8959,2.2636,0.9611,3.4862c-1.2606,1.6486-3.0715,1.114-4.3997-0.0067
		c-4.3244-3.6488-8.5016-7.4714-12.8033-11.1478c-20.2493-17.3058-40.5291-34.5755-60.7706-51.8903
		c-1.7589-1.5046-3.4598-3.1273-4.9193-4.9142C447.9072,487.1611,448.5498,485.9435,449.9177,485.1704z"/>
	<path d="M348.8548,1417.6609c-0.2463,0.173-0.5052,0.4955-0.7352,0.476c-0.2229-0.0189-0.6282-0.5249-0.5898-0.5853
		C348.0175,1416.7865,348.4865,1416.8403,348.8548,1417.6609z"/>
	<polygon points="402.4806,1419.5828 401.8808,1419.7389 401.971,1419.282 	"/>
	<path d="M395.0627,1418.6307c0,0,0.1042-0.1027,0.1044-0.1022C395.1672,1418.5289,395.0627,1418.6307,395.0627,1418.6307z"/>
</g>
</svg>
